<svg width="70" height="71" viewBox="0 0 70 71" fill="none" xmlns="http://www.w3.org/2000/svg">
<g clip-path="url(#clip0_193_128)">
<mask id="mask0_193_128" style="mask-type:luminance" maskUnits="userSpaceOnUse" x="0" y="0" width="70" height="71">
<path d="M70 0H0V71H70V0Z" fill="white"/>
</mask>
<g mask="url(#mask0_193_128)">
<path d="M5.83328 35.5C5.83328 19.1611 18.8912 5.91666 35 5.91666C51.1087 5.91666 64.1666 19.1611 64.1666 35.5C64.1666 51.8389 51.1087 65.0833 35 65.0833H5.83328L14.3762 56.4184C11.6638 53.6742 9.51277 50.4138 8.04668 46.8239C6.58061 43.234 5.8284 39.3858 5.83328 35.5ZM19.9149 59.1667H35C39.6147 59.1667 44.1262 57.7786 47.9634 55.1782C51.8003 52.5776 54.791 48.8814 56.5571 44.5569C58.3231 40.2324 58.7854 35.4737 57.885 30.8829C56.9846 26.292 54.7624 22.075 51.499 18.7651C48.2358 15.4553 44.0784 13.2013 39.552 12.2881C35.0259 11.3749 30.3342 11.8436 26.0707 13.6348C21.8071 15.4261 18.1629 18.4595 15.599 22.3515C13.0351 26.2435 11.6666 30.819 11.6666 35.5C11.6666 41.8663 14.1487 47.8214 18.5004 52.2353L22.6245 56.4184L19.9149 59.1667ZM23.3333 38.4583H46.6666C46.6666 41.5968 45.4376 44.6066 43.2495 46.8257C41.0617 49.045 38.0943 50.2917 35 50.2917C31.9057 50.2917 28.9383 49.045 26.7504 46.8257C24.5624 44.6066 23.3333 41.5968 23.3333 38.4583Z" fill="#3CF270"/>
</g>
</g>
<defs>
<clipPath id="clip0_193_128">
<rect width="70" height="71" fill="white"/>
</clipPath>
</defs>
</svg>
