<svg width="90" height="90" viewBox="0 0 90 90" fill="none" xmlns="http://www.w3.org/2000/svg">
<g clip-path="url(#clip0_183_295)">
<mask id="mask0_183_295" style="mask-type:luminance" maskUnits="userSpaceOnUse" x="0" y="0" width="90" height="90">
<path d="M90 0H0V90H90V0Z" fill="white"/>
</mask>
<g mask="url(#mask0_183_295)">
<path d="M75 7.5C77.07 7.5 78.75 9.18 78.75 11.25V25.3387L71.25 32.8387V15H18.75V75H71.25V64.6575L78.75 57.1575V78.75C78.75 80.82 77.07 82.5 75 82.5H15C12.93 82.5 11.25 80.82 11.25 78.75V11.25C11.25 9.18 12.93 7.5 15 7.5H75ZM81.6675 33.03L86.97 38.3325L57.8025 67.5L52.4925 67.4925L52.5 62.1975L81.6675 33.03ZM48.75 45V52.5H30V45H48.75ZM60 30V37.5H30V30H60Z" fill="#DE1AC4"/>
</g>
</g>
<defs>
<clipPath id="clip0_183_295">
<rect width="90" height="90" fill="white"/>
</clipPath>
</defs>
</svg>
