<svg width="775" height="307" viewBox="0 0 775 307" fill="none" xmlns="http://www.w3.org/2000/svg">
<path d="M259.29 189.903C259.29 122.572 311.256 72.8062 381.735 72.8062C452.214 72.8062 504.18 122.247 504.18 189.903C504.18 257.559 452.214 307 381.735 307C311.256 307 259.29 257.234 259.29 189.903ZM461.633 189.903C461.633 143.39 427.53 109.887 381.735 109.887C335.94 109.887 301.837 143.39 301.837 189.903C301.837 236.417 335.94 269.919 381.735 269.919C427.53 269.919 461.633 236.417 461.633 189.903Z" fill="#D81BDD"/>
<path d="M735.051 303.747L734.726 152.822L660.025 277.726H641.187L566.485 154.774V303.747H526.212V76.0588H560.964L651.255 226.984L739.923 76.0588H774.675L775 303.747H735.051Z" fill="#D81BDD"/>
<path d="M169.377 255.228H190.326L138.522 151.359L60.14 303.585H0L137.927 33.1233L274.176 303.314L83.3083 303.856L139.01 193.373L169.377 255.228Z" fill="#D81BDD"/>
<path d="M269.791 80.6126C266.002 81.5884 258.965 73.4567 255.988 77.3057L218.475 152.443L199.15 111.567L189.244 92.3223L209.164 52.4226C209.164 49.0072 200.016 47.9772 198.067 44.7245L263.729 0L269.791 80.6126Z" fill="#D81BDD"/>
</svg>
