<svg width="204" height="105" viewBox="0 0 204 105" fill="none" xmlns="http://www.w3.org/2000/svg">
<path d="M47.9908 61.0761H52.9976L40.6164 36.2201L21.8828 72.6476H7.5092L40.4741 7.92639L73.0376 72.5829L27.4201 72.7129L40.7329 46.2741L47.9908 61.0761Z" fill="url(#paint0_linear_198_740)"/>
<path d="M71.9901 19.2906C71.0846 19.5241 69.4025 17.5782 68.6911 18.4993L59.7252 36.4796L55.1065 26.6981L52.7389 22.0927L57.4999 12.5447C57.4999 11.7274 55.3135 11.481 54.8477 10.7026L70.5408 0L71.9901 19.2906Z" fill="url(#paint1_linear_198_740)"/>
<path d="M121.366 45.4376C121.366 51.4135 120.237 56.4974 117.98 60.6893C115.74 64.8816 112.682 68.0833 108.806 70.2954C104.949 72.4893 100.611 73.5863 95.7936 73.5863C90.9402 73.5863 86.5849 72.4805 82.727 70.2684C78.8692 68.0563 75.8204 64.8546 73.5808 60.6626C71.3406 56.4706 70.2204 51.3956 70.2204 45.4376C70.2204 39.4618 71.3406 34.3779 73.5808 30.1859C75.8204 25.9939 78.8692 22.8009 82.727 20.6068C86.5849 18.3948 90.9402 17.2888 95.7936 17.2888C100.611 17.2888 104.949 18.3948 108.806 20.6068C112.682 22.8009 115.74 25.9939 117.98 30.1859C120.237 34.3779 121.366 39.4618 121.366 45.4376ZM109.66 45.4376C109.66 41.5667 109.082 38.3023 107.927 35.6444C106.789 32.9865 105.18 30.9708 103.1 29.5973C101.02 28.2237 98.5846 27.5369 95.7936 27.5369C93.0021 27.5369 90.5666 28.2237 88.4872 29.5973C86.4071 30.9708 84.7889 32.9865 83.6337 35.6444C82.4961 38.3023 81.9273 41.5667 81.9273 45.4376C81.9273 49.3085 82.4961 52.5729 83.6337 55.2308C84.7889 57.8887 86.4071 59.9045 88.4872 61.278C90.5666 62.6515 93.0021 63.3382 95.7936 63.3382C98.5846 63.3382 101.02 62.6515 103.1 61.278C105.18 59.9045 106.789 57.8887 107.927 55.2308C109.082 52.5729 109.66 49.3085 109.66 45.4376ZM126.165 18.0381H140.405L155.444 54.8562H156.084L171.124 18.0381H185.364V72.8372H174.164V37.1696H173.711L159.577 72.5697H151.951L137.818 37.0358H137.365V72.8372H126.165V18.0381Z" fill="url(#paint2_linear_198_740)"/>
<defs>
<linearGradient id="paint0_linear_198_740" x1="40.2735" y1="7.92639" x2="40.2735" y2="72.7129" gradientUnits="userSpaceOnUse">
<stop stop-color="#D81BDD"/>
<stop offset="1" stop-color="#341ADE"/>
</linearGradient>
<linearGradient id="paint1_linear_198_740" x1="62.3644" y1="0" x2="62.3644" y2="36.4796" gradientUnits="userSpaceOnUse">
<stop stop-color="#D81BDD"/>
<stop offset="1" stop-color="#341ADE"/>
</linearGradient>
<linearGradient id="paint2_linear_198_740" x1="128.282" y1="-5.60504e-06" x2="128.282" y2="91.0465" gradientUnits="userSpaceOnUse">
<stop stop-color="#D81BDD"/>
<stop offset="1" stop-color="#341ADE"/>
</linearGradient>
</defs>
</svg>
