<svg width="71" height="71" viewBox="0 0 71 71" fill="none" xmlns="http://www.w3.org/2000/svg">
<g clip-path="url(#clip0_193_124)">
<mask id="mask0_193_124" style="mask-type:luminance" maskUnits="userSpaceOnUse" x="0" y="0" width="71" height="71">
<path d="M71 0H0V71H71V0Z" fill="white"/>
</mask>
<g mask="url(#mask0_193_124)">
<path d="M41.4166 53.25V59.1667L47.3333 62.125V65.0833H23.6666L23.6548 62.1368L29.5833 59.1667V53.25H8.85129C8.4628 53.2476 8.07863 53.1686 7.72073 53.0178C7.36284 52.8666 7.03828 52.6462 6.76564 52.3696C6.493 52.0927 6.27769 51.7649 6.13199 51.4049C5.98629 51.0449 5.9131 50.6594 5.91663 50.271V11.854C5.91663 10.2092 7.26267 8.875 8.85129 8.875H62.1486C63.7698 8.875 65.0833 10.2033 65.0833 11.854V50.271C65.0833 51.9158 63.7372 53.25 62.1486 53.25H41.4166ZM11.8333 14.7917V41.4167H59.1666V14.7917H11.8333Z" fill="#3CF270"/>
</g>
</g>
<defs>
<clipPath id="clip0_193_124">
<rect width="71" height="71" fill="white"/>
</clipPath>
</defs>
</svg>
