<svg width="90" height="90" viewBox="0 0 90 90" fill="none" xmlns="http://www.w3.org/2000/svg">
<g clip-path="url(#clip0_183_313)">
<mask id="mask0_183_313" style="mask-type:luminance" maskUnits="userSpaceOnUse" x="0" y="0" width="90" height="90">
<path d="M90 0H0V90H90V0Z" fill="white"/>
</mask>
<g mask="url(#mask0_183_313)">
<path d="M74.7675 30H78.75C80.739 30 82.6466 30.7902 84.0533 32.1967C85.4599 33.6032 86.25 35.5109 86.25 37.5V52.5C86.25 54.489 85.4599 56.3966 84.0533 57.8033C82.6466 59.2099 80.739 60 78.75 60H74.7675C73.8532 67.2499 70.3249 73.917 64.8439 78.75C59.3633 83.583 52.3073 86.25 45 86.25V78.75C50.9674 78.75 56.6902 76.3796 60.9097 72.1598C65.1296 67.9403 67.5 62.2174 67.5 56.25V33.75C67.5 27.7826 65.1296 22.0597 60.9097 17.8401C56.6902 13.6205 50.9674 11.25 45 11.25C39.0326 11.25 33.3097 13.6205 29.0901 17.8401C24.8705 22.0597 22.5 27.7826 22.5 33.75V60H11.25C9.26089 60 7.35323 59.2099 5.94671 57.8033C4.54016 56.3966 3.75 54.489 3.75 52.5V37.5C3.75 35.5109 4.54016 33.6032 5.94671 32.1967C7.35323 30.7902 9.26089 30 11.25 30H15.2325C16.1476 22.7509 19.6765 16.0847 25.1571 11.2525C30.6378 6.42028 37.6935 3.75403 45 3.75403C52.3065 3.75403 59.3621 6.42028 64.8428 11.2525C70.3234 16.0847 73.8525 22.7509 74.7675 30ZM11.25 37.5V52.5H15V37.5H11.25ZM75 37.5V52.5H78.75V37.5H75ZM29.1 59.1938L33.075 52.8338C36.649 55.0725 40.7827 56.2568 45 56.25C49.2173 56.2568 53.3509 55.0725 56.925 52.8338L60.9 59.1938C56.1349 62.1791 50.6231 63.7586 45 63.75C39.3769 63.7586 33.8653 62.1791 29.1 59.1938Z" fill="#DE1AC4"/>
</g>
</g>
<defs>
<clipPath id="clip0_183_313">
<rect width="90" height="90" fill="white"/>
</clipPath>
</defs>
</svg>
