<svg width="71" height="71" viewBox="0 0 71 71" fill="none" xmlns="http://www.w3.org/2000/svg">
<g clip-path="url(#clip0_193_123)">
<mask id="mask0_193_123" style="mask-type:luminance" maskUnits="userSpaceOnUse" x="0" y="0" width="71" height="71">
<path d="M71 0H0V71H71V0Z" fill="white"/>
</mask>
<g mask="url(#mask0_193_123)">
<path d="M58.9833 23.6666H62.125C63.6941 23.6666 65.199 24.29 66.3087 25.3996C67.4184 26.5092 68.0417 28.0141 68.0417 29.5833V41.4167C68.0417 42.9858 67.4184 44.4907 66.3087 45.6003C65.199 46.71 63.6941 47.3333 62.125 47.3333H58.9833C58.262 53.0527 55.4785 58.3123 51.1546 62.125C46.831 65.9377 41.2646 68.0416 35.5 68.0416V62.125C40.2076 62.125 44.7223 60.255 48.0511 56.926C51.3801 53.5973 53.25 49.0826 53.25 44.375V26.625C53.25 21.9174 51.3801 17.4026 48.0511 14.0738C44.7223 10.745 40.2076 8.87496 35.5 8.87496C30.7924 8.87496 26.2777 10.745 22.9489 14.0738C19.6201 17.4026 17.75 21.9174 17.75 26.625V47.3333H8.87504C7.30585 47.3333 5.80092 46.71 4.69134 45.6003C3.58172 44.4907 2.95837 42.9858 2.95837 41.4167V29.5833C2.95837 28.0141 3.58172 26.5092 4.69134 25.3996C5.80092 24.29 7.30585 23.6666 8.87504 23.6666H12.0168C12.7387 17.9479 15.5227 12.689 19.8462 8.87697C24.1698 5.06486 29.736 2.96149 35.5 2.96149C41.2641 2.96149 46.8302 5.06486 51.1538 8.87697C55.4774 12.689 58.2615 17.9479 58.9833 23.6666ZM8.87504 29.5833V41.4167H11.8334V29.5833H8.87504ZM59.1667 29.5833V41.4167H62.125V29.5833H59.1667ZM22.9567 46.6973L26.0925 41.6799C28.9121 43.4461 32.1731 44.3803 35.5 44.375C38.827 44.3803 42.0879 43.4461 44.9075 41.6799L48.0434 46.6973C44.2842 49.0524 39.9361 50.2985 35.5 50.2916C31.064 50.2985 26.716 49.0524 22.9567 46.6973Z" fill="#3CF270"/>
</g>
</g>
<defs>
<clipPath id="clip0_193_123">
<rect width="71" height="71" fill="white"/>
</clipPath>
</defs>
</svg>
