<svg width="326" height="172" viewBox="0 0 326 172" fill="none" xmlns="http://www.w3.org/2000/svg">
<path d="M76.6912 97.2693H84.6923L64.9066 57.6839L34.9696 115.698H12L64.6792 12.6235L116.717 115.595L43.8184 115.802L65.0927 73.6958L76.6912 97.2693Z" fill="url(#paint0_linear_198_535)"/>
<path d="M115.043 30.7221C113.596 31.0939 110.908 27.9949 109.771 29.4618L95.4432 58.0971L88.0623 42.5192L84.2788 35.1847L91.8871 19.9786C91.8871 18.677 88.3931 18.2845 87.6488 17.0449L112.727 0L115.043 30.7221Z" fill="url(#paint1_linear_198_535)"/>
<path d="M193.948 72.3636C193.948 81.8807 192.144 89.9773 188.536 96.6534C184.957 103.33 180.07 108.429 173.877 111.952C167.712 115.446 160.781 117.193 153.082 117.193C145.326 117.193 138.366 115.432 132.201 111.909C126.036 108.386 121.164 103.287 117.585 96.6108C114.005 89.9347 112.215 81.8523 112.215 72.3636C112.215 62.8466 114.005 54.75 117.585 48.0739C121.164 41.3977 126.036 36.3125 132.201 32.8182C138.366 29.2955 145.326 27.5341 153.082 27.5341C160.781 27.5341 167.712 29.2955 173.877 32.8182C180.07 36.3125 184.957 41.3977 188.536 48.0739C192.144 54.75 193.948 62.8466 193.948 72.3636ZM175.241 72.3636C175.241 66.1989 174.317 61 172.471 56.767C170.653 52.5341 168.082 49.3239 164.758 47.1364C161.434 44.9489 157.542 43.8551 153.082 43.8551C148.621 43.8551 144.729 44.9489 141.406 47.1364C138.082 49.3239 135.496 52.5341 133.65 56.767C131.832 61 130.923 66.1989 130.923 72.3636C130.923 78.5284 131.832 83.7273 133.65 87.9602C135.496 92.1932 138.082 95.4034 141.406 97.5909C144.729 99.7784 148.621 100.872 153.082 100.872C157.542 100.872 161.434 99.7784 164.758 97.5909C168.082 95.4034 170.653 92.1932 172.471 87.9602C174.317 83.7273 175.241 78.5284 175.241 72.3636ZM201.616 28.7273H224.372L248.406 87.3636H249.429L273.463 28.7273H296.219V116H278.321V59.196H277.597L255.011 115.574H242.824L220.239 58.983H219.514V116H201.616V28.7273Z" fill="url(#paint2_linear_198_535)"/>
<defs>
<linearGradient id="paint0_linear_198_535" x1="64.3587" y1="12.6235" x2="64.3587" y2="115.802" gradientUnits="userSpaceOnUse">
<stop stop-color="#3CF270"/>
<stop offset="1" stop-color="#238C41"/>
</linearGradient>
<linearGradient id="paint1_linear_198_535" x1="99.6608" y1="0" x2="99.6608" y2="58.0971" gradientUnits="userSpaceOnUse">
<stop stop-color="#3CF270"/>
<stop offset="1" stop-color="#238C41"/>
</linearGradient>
<linearGradient id="paint2_linear_198_535" x1="205" y1="0" x2="205" y2="145" gradientUnits="userSpaceOnUse">
<stop stop-color="#3CF270"/>
<stop offset="1" stop-color="#238C41"/>
</linearGradient>
</defs>
</svg>
